<?xml version="1.0" standalone="no"?><!DOCTYPE svg PUBLIC "-//W3C//DTD SVG 1.1//EN" "http://www.w3.org/Graphics/SVG/1.1/DTD/svg11.dtd"><svg t="1737124028135" class="icon" viewBox="0 0 1024 1024" version="1.1" xmlns="http://www.w3.org/2000/svg" p-id="6362" xmlns:xlink="http://www.w3.org/1999/xlink" width="200" height="200"><path d="M512 101.376a410.624 410.624 0 1 1 0 821.248 410.624 410.624 0 0 1 0-821.248z m0 74.666667a336.042667 336.042667 0 1 0 0 672 336.042667 336.042667 0 0 0 0-672.085334z m149.333333 149.333333a37.290667 37.290667 0 0 1 6.741334 73.984l-6.741334 0.682667H549.290667v298.666666a37.290667 37.290667 0 0 1-73.984 6.656l-0.682667-6.741333v-298.666667H362.666667a37.290667 37.290667 0 0 1-6.741334-73.984l6.741334-0.597333h298.666666z" p-id="6363" fill="#8a8a8a"></path></svg>